<?xml version="1.0" encoding="utf-8"?>
<!-- Generator: Adobe Illustrator 27.0.1, SVG Export Plug-In . SVG Version: 6.00 Build 0)  -->
<svg version="1.1" id="Lager_1" xmlns="http://www.w3.org/2000/svg" xmlns:xlink="http://www.w3.org/1999/xlink" x="0px" y="0px"
	 viewBox="0 0 75 50" style="enable-background:new 0 0 75 50;" xml:space="preserve">
<style type="text/css">
	.st0{fill:#1B1464;}
	.st1{fill:none;}
	.st2{fill:#F1F0F0;}
	.st3{fill:#C50809;}
	.st4{fill:#050264;}
	.st5{fill:#FFE900;}
</style>
<polygon class="st0" points="0,0 0,50 75,0 "/>
<polygon class="st1" points="29.35,30.44 31.48,29.01 29.35,29.01 "/>
<g>
	<path class="st1" d="M16.13,33.46c0.05,0.01,0.1,0.01,0.16,0.02c-0.04,0.04-0.08,0.09-0.11,0.13c0.04-0.05,0.08-0.09,0.11-0.13
		C16.24,33.47,16.19,33.46,16.13,33.46z"/>
	<path class="st2" d="M32.05,30.02c-0.7,0-1.4,0-2.1,0L0.14,50c0.23-0.1,0.14-0.01,0.33,0c1.1-0.82,2.19-1.71,3.32-2.46
		c6.69-4.47,13.38-8.93,20.09-13.34c0.7-0.46,1.53-0.68,2.32-0.77c1.03-0.13,2.07-0.02,3.11-0.01c0.21,0,0.42,0.05,0.62,0.08
		c-0.18,0.19-0.34,0.44-0.55,0.58c-2.85,1.94-5.69,3.88-8.55,5.81c-4.7,3.18-9.41,6.36-14.11,9.54c-0.21,0.15-0.4,0.38-0.59,0.58
		c0.94,0,1.89,0,2.83,0c1.12-0.83,2.22-1.72,3.36-2.49c5.19-3.5,10.39-6.96,15.59-10.44c0.89-0.59,1.81-1.11,2.64-1.83
		c0.71-0.62,0.71-0.13,0.71,0.57c0,3.6,0,7.2-0.01,10.8c0,1.13-0.01,2.26-0.01,3.39c0.88,0,1.76,0,2.64,0
		c-0.02-5.87-0.04-11.74-0.05-17.6C33.84,30.04,33.84,30.02,32.05,30.02z"/>
	<path class="st2" d="M74.91,0l-0.7,0.47c-0.12,0.14-0.25,0.28-0.39,0.37C70,3.38,66.18,5.91,62.35,8.43
		c-0.77,0.51-1.54,1.01-2.32,1.51l-8.3,5.55c-0.07,0.05-0.14,0.1-0.2,0.15c-0.15,0.11-0.31,0.21-0.46,0.3l-6.31,4.22
		c9.7,0,19.41,0.02,29.11-0.02c0.85,0,1.05,0.32,1.02,1.4c-0.06,2.39-0.07,4.78,0,7.17c0.03,1.14-0.24,1.37-1.05,1.36
		c-10.36-0.04-20.72-0.03-31.08-0.03c-1.45,0-1.45,0-1.45,1.9c0,5.7,0,11.4,0.01,17.11c0,0.32,0.07,0.65,0.11,0.97
		c0.75,0,1.5,0,2.25,0c0.05-0.31,0.14-0.63,0.14-0.94c0.01-4.19,0.01-8.38-0.01-12.57c0-1.6-0.01-1.62,1.04-0.91
		c6.81,4.58,13.61,9.16,20.41,13.75c0.27,0.18,0.51,0.45,0.76,0.67c2.88,0,5.76,0,8.64,0c-2.41-1.66-4.82-3.34-7.24-4.97
		c-5.47-3.68-10.96-7.33-16.43-11c-0.2-0.13-0.36-0.37-0.53-0.56c0.21-0.02,0.43-0.05,0.64-0.05c1.38-0.01,2.77-0.21,4.12,0.05
		c1.04,0.2,2.04,0.91,3.01,1.55c5.38,3.54,10.75,7.13,16.12,10.73c0.19,0.12,0.35,0.53,0.37,0.82c0.08,1.14,0.09,2.29,0.13,3.44
		c0.06-0.21,0.18-0.42,0.18-0.63c0.01-16.22,0-32.44,0.03-48.66C75.08,0.3,75.03,0.1,74.91,0z M74.2,16.79
		c-2.5-0.04-5-0.02-7.5-0.02c0,0,0,0.01,0,0.01c-2.5,0-5,0-7.5,0c-0.15,0-0.3-0.05-0.45-0.07c0.12-0.15,0.23-0.35,0.37-0.44
		c5.05-3.38,10.1-6.74,15.14-10.12c0.53-0.35,0.62-0.14,0.62,0.56c-0.02,3.06-0.02,6.11,0,9.17C74.89,16.6,74.73,16.8,74.2,16.79z
		 M74.88,43.54c0,0.66-0.05,0.95-0.61,0.57c-1.66-1.13-3.36-2.18-5.02-3.3c-3.3-2.21-6.6-4.44-9.89-6.68
		c-0.23-0.16-0.43-0.41-0.64-0.62c0.27-0.03,0.54-0.09,0.8-0.09c2.41-0.01,4.81,0,7.22,0c0,0,0,0,0,0.01c2.47,0,4.94,0.02,7.4-0.02
		c0.56-0.01,0.76,0.16,0.75,0.96C74.85,37.42,74.87,40.48,74.88,43.54z"/>
	<path class="st2" d="M60.14,9.94c-2.8,1.8-5.62,3.57-8.34,5.55L60.14,9.94z"/>
	<path class="st3" d="M41.33,31.92c0-1.9,0-1.9,1.45-1.9c10.42,0,20.83-0.01,31.25,0.03c0.81,0,1.09-0.22,1.05-1.36
		c-0.07-2.39-0.07-4.78,0-7.17c0.03-1.08-0.17-1.4-1.02-1.4c-9.76,0.04-19.51,0.03-29.27,0.02l-14.84,9.87c0.7,0,1.4,0,2.1,0
		c1.79,0,1.79,0.02,1.8,2.38c0.02,5.87,0.03,11.74,0.05,17.6c2.52,0,5.04,0,7.55,0c-0.04-0.32-0.11-0.65-0.11-0.97
		C41.33,43.33,41.33,37.62,41.33,31.92z"/>
	<path class="st4" d="M44.9,35.58c-1.06-0.71-1.05-0.69-1.05,0.91c0.01,4.19,0.01,8.38,0.01,12.57c0,0.31-0.09,0.63-0.14,0.94
		c7.49,0,14.98,0,22.47,0c-0.25-0.23-0.49-0.49-0.76-0.67C58.58,44.74,51.74,40.15,44.9,35.58z"/>
	<path class="st4" d="M31.27,35.81c0-0.71-0.01-1.19-0.71-0.57c-0.83,0.72-1.75,1.24-2.64,1.83c-5.2,3.48-10.4,6.94-15.59,10.44
		c-1.14,0.77-2.24,1.65-3.36,2.49c7.43,0,14.86,0,22.28,0c0-1.13,0.01-2.26,0.01-3.39C31.26,43.01,31.26,39.41,31.27,35.81z"/>
	<path class="st3" d="M20.84,39.88c2.85-1.93,5.7-3.86,8.55-5.81c0.2-0.14,0.36-0.38,0.55-0.58c-0.21-0.03-0.42-0.07-0.62-0.08
		c-1.04-0.01-4.35-0.06-4.35-0.06l-1.04,0.7c0,0-13.44,8.88-20.13,13.35C2.66,48.16,1.65,48.92,0,50c1.89,0,4.25,0,6.13,0
		c0.2-0.19,0.38-0.43,0.59-0.58C11.43,46.24,16.13,43.06,20.84,39.88z"/>
	<path class="st3" d="M74.55,45.74c-5.39-3.6-10.79-7.18-16.2-10.73c-0.97-0.64-1.98-1.35-3.03-1.55c-1.35-0.26-2.76-0.06-4.14-0.05
		c-0.21,0-0.43,0.03-0.64,0.05c0.18,0.19,0.34,0.43,0.54,0.56c5.51,3.67,11.02,7.32,16.52,11c2.44,1.63,4.85,3.31,7.28,4.97
		c0.06,0,0.13,0,0.19,0c-0.04-1.15-0.05-2.3-0.13-3.44C74.91,46.27,74.74,45.87,74.55,45.74z"/>
	<path class="st4" d="M74.32,33.41c-2.48,0.04-4.96,0.02-7.44,0.02c0,0,0,0,0-0.01c-2.42,0-4.84,0-7.26,0
		c-0.27,0-0.54,0.06-0.81,0.09c0.21,0.21,0.41,0.46,0.64,0.62c3.31,2.24,6.63,4.47,9.95,6.68c1.68,1.12,3.38,2.17,5.05,3.3
		c0.56,0.38,0.62,0.08,0.61-0.57c-0.01-3.06-0.03-6.11,0.01-9.17C75.08,33.56,74.88,33.4,74.32,33.41z"/>
	<path class="st4" d="M75.07,6.71c0-0.7-0.09-0.92-0.62-0.56c-5.07,3.38-10.15,6.74-15.22,10.12c-0.14,0.1-0.25,0.29-0.37,0.44
		c0.15,0.03,0.3,0.07,0.45,0.07c2.51,0,5.03,0,7.54,0c0,0,0-0.01,0-0.01c2.51,0,5.03-0.02,7.54,0.02c0.53,0.01,0.69-0.19,0.69-0.91
		C75.04,12.82,75.05,9.77,75.07,6.71z"/>
</g>
<polygon class="st5" points="33.89,20.15 33.89,0 24.02,0 24.02,20.15 0,20.15 0,30.02 24.02,30.02 24.02,33.96 44.73,20.15 "/>
</svg>
