<?xml version="1.0" encoding="utf-8"?>
<!-- Generator: Adobe Illustrator 27.0.1, SVG Export Plug-In . SVG Version: 6.00 Build 0)  -->
<svg version="1.1" id="Lager_1" xmlns="http://www.w3.org/2000/svg" xmlns:xlink="http://www.w3.org/1999/xlink" x="0px" y="0px"
	 viewBox="0 0 70 70" style="enable-background:new 0 0 70 70;" xml:space="preserve">
<style type="text/css">
	.st0{fill:#573125;}
	.st1{fill:#FF0000;}
</style>
<rect width="70" height="70"/>
<g>
	<polygon class="st0" points="0,70 23.85,43.83 10.1,19.29 35,0 0,0 	"/>
	<polygon class="st0" points="35,0 59.9,19.29 46.15,43.83 70,70 70,0 	"/>
</g>
<g>
	<g>
		<circle class="st1" cx="23.73" cy="23.54" r="1.23"/>
	</g>
	<g>
		<circle class="st1" cx="26.66" cy="23.54" r="1.23"/>
	</g>
	<g>
		<circle class="st1" cx="29.49" cy="23.54" r="1.23"/>
	</g>
	<g>
		<circle class="st1" cx="29.44" cy="28.41" r="1.23"/>
	</g>
	<g>
		<circle class="st1" cx="26.46" cy="28.41" r="1.23"/>
	</g>
	<g>
		<circle class="st1" cx="32.34" cy="23.54" r="1.23"/>
	</g>
	<g>
		<circle class="st1" cx="28.06" cy="26" r="1.23"/>
	</g>
	<g>
		<circle class="st1" cx="30.91" cy="25.95" r="1.23"/>
	</g>
	<g>
		<circle class="st1" cx="25.17" cy="26" r="1.23"/>
	</g>
	<g>
		<circle class="st1" cx="37.66" cy="23.54" r="1.23"/>
	</g>
	<g>
		<circle class="st1" cx="40.58" cy="23.54" r="1.23"/>
	</g>
	<g>
		<circle class="st1" cx="43.42" cy="23.54" r="1.23"/>
	</g>
	<g>
		<circle class="st1" cx="43.36" cy="28.41" r="1.23"/>
	</g>
	<g>
		<circle class="st1" cx="40.38" cy="28.41" r="1.23"/>
	</g>
	<g>
		<circle class="st1" cx="46.27" cy="23.54" r="1.23"/>
	</g>
	<g>
		<circle class="st1" cx="41.99" cy="26" r="1.23"/>
	</g>
	<g>
		<circle class="st1" cx="44.83" cy="25.95" r="1.23"/>
	</g>
	<g>
		<circle class="st1" cx="39.09" cy="26" r="1.23"/>
	</g>
</g>
</svg>
